<?xml version="1.0" encoding="UTF-8"?>
<svg width="27px" height="27px" viewBox="0 0 27 27" version="1.1" xmlns="http://www.w3.org/2000/svg" xmlns:xlink="http://www.w3.org/1999/xlink">
    <!-- Generator: Sketch 48.2 (47327) - http://www.bohemiancoding.com/sketch -->
    <title>internet</title>
    <desc>Created with Sketch.</desc>
    <defs></defs>
    <g id="Главная" stroke="none" stroke-width="1" fill="none" fill-rule="evenodd" transform="translate(-224.000000, -3419.000000)">
        <g id="Контакты" transform="translate(0.000000, 3000.000000)" fill="#000000" fill-rule="nonzero">
            <g id="Контактная-информация" transform="translate(224.000000, 321.000000)">
                <g id="Адрес" transform="translate(0.000000, 96.000000)">
                    <g id="internet" transform="translate(0.000000, 2.000000)">
                        <path d="M23.5961379,22.4481724 C25.7114483,20.0642586 27,16.9303966 27,13.5 C27,9.93087931 25.6053103,6.68343103 23.3354483,4.26693103 C23.3354483,4.26693103 23.3354483,4.26646552 23.3354483,4.26646552 C23.3335862,4.26367241 23.3307931,4.26274138 23.3293966,4.26041379 C20.9650345,1.74708621 17.6524138,0.138258621 13.9678448,0.0121034483 L13.9673793,0.011637931 L13.7043621,0.00465517241 C13.6363966,0.00232758621 13.568431,0 13.5,0 C13.431569,0 13.3636034,0.00232758621 13.2956379,0.00465517241 L13.0335517,0.011637931 L13.0330862,0.0121034483 C9.34851724,0.138258621 6.03589655,1.74708621 3.67153448,4.26041379 C3.66967241,4.26274138 3.66687931,4.26367241 3.66548276,4.26646552 C3.66548276,4.26646552 3.66548276,4.26693103 3.66501724,4.26739655 C1.39468966,6.68343103 0,9.93087931 0,13.5 C0,16.9303966 1.28855172,20.0642586 3.40386207,22.4481724 C3.40665517,22.4523621 3.40665517,22.4570172 3.40991379,22.4612069 C3.4182931,22.4728448 3.43039655,22.478431 3.43924138,22.4891379 C5.81617241,25.1463103 9.22655172,26.8580172 13.0326207,26.9883621 L13.0330862,26.9888276 L13.2951724,26.9958103 C13.3636034,26.9976724 13.431569,27 13.5,27 C13.568431,27 13.6363966,26.9976724 13.7043621,26.9953448 L13.9664483,26.9883621 L13.9669138,26.9878966 C17.7771724,26.8570862 21.1912759,25.1421207 23.5682069,22.4793621 C23.5742586,22.4714483 23.5840345,22.4691207 23.5896207,22.4607414 C23.5933448,22.4570172 23.5933448,22.4523621 23.5961379,22.4481724 Z M0.942672414,13.9655172 L6.53027586,13.9655172 C6.58287931,15.9388448 6.96832759,17.8563103 7.6545,19.6527414 C6.33056897,20.1317586 5.06482759,20.7741724 3.87868966,21.5757931 C2.13439655,19.5009828 1.04881034,16.8563793 0.942672414,13.9655172 Z M4.13286207,5.13139655 C5.29106897,5.88460345 6.52422414,6.48791379 7.81044828,6.93853448 C7.0227931,8.85041379 6.58706897,10.9117241 6.53027586,13.0344828 L0.942672414,13.0344828 C1.05393103,10.0053621 2.24006897,7.24717241 4.13286207,5.13139655 Z M26.0573276,13.0344828 L20.4697241,13.0344828 C20.412931,10.9117241 19.9772069,8.85041379 19.1895517,6.93853448 C20.4757759,6.48791379 21.708931,5.88460345 22.8671379,5.13139655 C24.759931,7.24717241 25.946069,10.0053621 26.0573276,13.0344828 Z M13.0344828,6.96553448 C11.6886724,6.92736207 10.3675345,6.72672414 9.09108621,6.36827586 C10.0346897,4.43265517 11.367,2.68556897 13.0344828,1.23082759 L13.0344828,6.96553448 Z M13.0344828,7.89656897 L13.0344828,13.0344828 L7.46131034,13.0344828 C7.51856897,11.0104138 7.94312069,9.04732759 8.70237931,7.22715517 C10.1017241,7.63262069 11.5546034,7.857 13.0344828,7.89656897 Z M13.9655172,7.89656897 C15.4453966,7.857 16.8982759,7.63308621 18.2980862,7.22715517 C19.0573448,9.04732759 19.4818966,11.0104138 19.5391552,13.0344828 L13.9655172,13.0344828 L13.9655172,7.89656897 Z M13.9655172,6.96553448 L13.9655172,1.23082759 C15.633,2.68556897 16.9653103,4.43265517 17.9089138,6.36827586 C16.6324655,6.72672414 15.3113276,6.92736207 13.9655172,6.96553448 Z M18.8110862,6.08524138 C17.9168276,4.21153448 16.6757586,2.50448276 15.1390862,1.04136207 C17.8651552,1.39794828 20.3179655,2.63063793 22.2070345,4.44801724 C21.1344828,5.12860345 19.9967586,5.67605172 18.8110862,6.08524138 Z M8.18891379,6.08524138 C7.00324138,5.67605172 5.86551724,5.12860345 4.79343103,4.44801724 C6.68203448,2.63063793 9.13531034,1.39794828 11.8613793,1.04136207 C10.3242414,2.50448276 9.08317241,4.21153448 8.18891379,6.08524138 Z M7.46131034,13.9655172 L13.0344828,13.9655172 L13.0344828,18.6383793 C11.4950172,18.6793448 9.98674138,18.9195517 8.53712069,19.3557414 C7.88213793,17.6542759 7.51391379,15.836431 7.46131034,13.9655172 Z M13.0344828,19.5694138 L13.0344828,25.7691724 C11.2496897,24.2120172 9.85034483,22.3201552 8.89882759,20.2216034 C10.2334655,19.8282414 11.6197759,19.6094483 13.0344828,19.5694138 Z M13.9655172,25.7691724 L13.9655172,19.5694138 C15.3802241,19.6089828 16.7665345,19.8282414 18.1011724,20.2211379 C17.1496552,22.3201552 15.7503103,24.2120172 13.9655172,25.7691724 Z M13.9655172,18.6383793 L13.9655172,13.9655172 L19.5386897,13.9655172 C19.4860862,15.836431 19.1178621,17.6542759 18.4624138,19.3562069 C17.0132586,18.9195517 15.5049828,18.6793448 13.9655172,18.6383793 Z M20.4697241,13.9655172 L26.0573276,13.9655172 C25.9511897,16.8563793 24.866069,19.5009828 23.1213103,21.5757931 C21.9351724,20.7741724 20.669431,20.1317586 19.3455,19.6527414 C20.0321379,17.8563103 20.4171207,15.9388448 20.4697241,13.9655172 Z M4.51132759,22.2731379 C5.61274138,21.5413448 6.78537931,20.952931 8.01062069,20.5130172 C8.91605172,22.5426724 10.2157759,24.3921724 11.8609138,25.9586379 C8.99751724,25.5838966 6.43484483,24.2432069 4.51132759,22.2731379 Z M15.1390862,25.9586379 C16.7842241,24.3926379 18.0839483,22.5431379 18.9893793,20.5130172 C20.2146207,20.952931 21.3867931,21.5413448 22.4886724,22.2731379 C20.5651552,24.2432069 18.0024828,25.5838966 15.1390862,25.9586379 Z" id="Shape"></path>
                    </g>
                </g>
            </g>
        </g>
    </g>
</svg>