<?xml version="1.0" encoding="UTF-8"?>
<svg width="1627px" height="366px" viewBox="0 0 1627 366" version="1.1" xmlns="http://www.w3.org/2000/svg" xmlns:xlink="http://www.w3.org/1999/xlink">
    <!-- Generator: Sketch 48.2 (47327) - http://www.bohemiancoding.com/sketch -->
    <title>Group 4</title>
    <desc>Created with Sketch.</desc>
    <defs>
        <linearGradient x1="0%" y1="50%" x2="52.7450492%" y2="50%" id="linearGradient-1">
            <stop stop-color="#FFE68A" offset="0%"></stop>
            <stop stop-color="#FCD00B" offset="100%"></stop>
        </linearGradient>
        <linearGradient x1="0%" y1="46.7312803%" x2="50%" y2="50%" id="linearGradient-2">
            <stop stop-color="#BDBDBD" offset="0%"></stop>
            <stop stop-color="#767676" offset="100%"></stop>
        </linearGradient>
    </defs>
    <g id="Логотип" stroke="none" stroke-width="1" fill="none" fill-rule="evenodd" transform="translate(-115.000000, -107.000000)">
        <g id="Group-4" transform="translate(104.000000, 93.000000)">
            <g id="Логотип">
                <g id="Group-3">
                    <g id="Желтый-ромб" transform="translate(0.000000, 40.000000)">
                        <rect id="Rectangle" fill="url(#linearGradient-1)" transform="translate(156.661840, 156.661840) rotate(45.000000) translate(-156.661840, -156.661840) " x="45.8851907" y="45.8851907" width="221.553299" height="221.553299" rx="27"></rect>
                        <path d="M149.44785,149.439373 C151.174966,125.473945 143.166975,101.397605 125.42388,77.210354 L227.518215,77.0834702 C242.429896,77.0688124 254.530084,89.1452358 254.544742,104.056917 C254.544751,104.065764 254.544755,104.07461 254.544755,104.083457 L254.526593,271.636757 C254.526593,286.548445 242.438281,298.636757 227.526593,298.636757 C227.523804,298.636757 227.521015,298.636756 227.518227,298.636755 L139.055706,298.600981 C125.276157,278.284959 119.468652,256.336251 121.633194,232.754859 C124.880005,197.382771 146.857177,185.387516 149.44785,149.439373 Z" id="Rectangle" fill="#F5C500" transform="translate(187.868584, 187.860107) scale(-1, 1) rotate(135.000000) translate(-187.868584, -187.860107) "></path>
                        <g id="Group-2" transform="translate(17.000000, 95.000000)" fill="#FFFFFF">
                            <path d="M117.669998,0 L161.669998,0 L161.669998,196.404419 C160.126083,197.917928 158.901937,199.123739 157.997559,200.021851 C148.842163,208.634399 132.662598,210.418457 121.416992,200.021851 C120.346761,199.003621 119.097763,197.783 117.669998,196.359985 L117.669998,0 Z" id="Rectangle-3"></path>
                            <polygon id="Rectangle-2" points="46.246392 0 255 0 255 44 0.593261719 44"></polygon>
                        </g>
                    </g>
                    <g id="Черный-ромб" transform="translate(188.000000, 0.000000)">
                        <rect id="Rectangle" fill="url(#linearGradient-2)" transform="translate(196.575685, 196.575685) rotate(45.000000) translate(-196.575685, -196.575685) " x="57.5756852" y="57.5756852" width="278" height="278" rx="34"></rect>
                        <path d="M203.205734,170.850406 C205.372879,140.779136 199.47701,116.427891 185.518129,97.7966722 L284.857226,97.7742791 C303.634907,97.7711255 318.859782,112.990887 318.862936,131.768568 C318.862936,131.770472 318.862936,131.772375 318.862936,131.774279 L318.857227,341.811515 C318.857227,360.574649 303.657606,375.790934 284.894484,375.811495 L178.973251,375.927563 C160.581489,344.873871 152.743616,314.55233 155.459633,284.96294 C159.533658,240.578854 199.955017,215.957311 203.205734,170.850406 Z" id="Rectangle" fill="#554E4E" transform="translate(236.899175, 236.850921) scale(-1, 1) rotate(135.000000) translate(-236.899175, -236.850921) "></path>
                        <g id="Group" transform="translate(121.000000, 114.000000)" fill="#FFFFFF">
                            <path d="M239.897461,49.9999735 L55.9999791,49.9999735 C52.6862706,49.9999735 49.9999791,52.686265 49.9999791,55.9999735 L49.9999791,109 C49.9999791,112.313708 52.6862706,115 55.9999791,115 L239.897461,115 L189.717285,165 L33.9999587,165 C15.2222772,165 -4.13278767e-05,149.777681 -4.13278767e-05,131 L-4.18496116e-05,33.9999971 C-4.18496116e-05,15.2223156 15.2222767,-2.91123933e-06 33.9999582,-2.91123933e-06 L189.717285,1.01977156e-13 L239.897461,50 Z" id="Combined-Shape"></path>
                        </g>
                    </g>
                </g>
            </g>
            <path d="M732.167969,116.25 L698.02002,116.25 L698.02002,179.507812 C698.02002,180.612382 697.124589,181.507812 696.02002,181.507812 L681.22998,181.507812 C680.125411,181.507812 679.22998,180.612382 679.22998,179.507812 L679.22998,116.25 L645.269531,116.25 C644.164962,116.25 643.269531,115.354569 643.269531,114.25 L643.269531,102.130859 C643.269531,101.02629 644.164962,100.130859 645.269531,100.130859 L732.167969,100.130859 C733.272538,100.130859 734.167969,101.02629 734.167969,102.130859 L734.167969,114.25 C734.167969,115.354569 733.272538,116.25 732.167969,116.25 Z M831.969727,150.594727 C831.969727,151.896484 831.969727,153.198242 831.969727,154.5 L831.969727,154.5 C831.969727,155.604569 831.074296,156.5 829.969727,156.5 L759.51001,156.5 C759.51001,157.183655 759.51001,158.103654 759.51001,159.259995 C759.51001,164.486291 763.168999,165.700012 767.03629,165.700012 L789.979492,165.700012 C791.084062,165.700012 791.979492,166.595443 791.979492,167.700012 L791.979492,179.51001 C791.979492,180.614579 791.084062,181.51001 789.979492,181.51001 L765.03629,181.51001 C747.996312,181.51001 741.419983,171.271194 741.419983,161.259995 L741.419983,136.820007 C741.419983,126.029999 748.003688,117.460007 765.039978,117.460007 L808.72998,117.460007 C825.72998,117.39653 831.969727,126.029694 831.969727,136.820007 L831.969727,150.594727 Z M814.26001,142.179993 L814.26001,138.820007 C814.26001,134.820007 810.72998,133.266525 806.72998,133.330002 L767.03629,133.330002 C763,133.330002 759.51001,134.820007 759.51001,138.820007 L759.51001,142.179993 L814.26001,142.179993 Z M931.140015,173.002485 L931.139687,179.507812 C931.139687,180.612254 930.244456,181.507632 929.140015,181.507812 L918.377847,181.509904 C917.956708,181.509973 917.546295,181.3771 917.205104,181.130226 L887.242187,159.449997 L856.901727,181.137088 C856.56242,181.379621 856.15578,181.51001 855.738706,181.51001 L844.900024,181.51001 C843.795455,181.51001 842.900024,180.614579 842.900024,179.51001 L842.900024,173.014822 C842.900024,172.369334 843.211558,171.763528 843.736593,171.388037 L874.320007,149.515625 L844.105062,127.580397 C843.586768,127.20413 843.280029,126.602398 843.280029,125.961925 L843.280023,119.459961 C843.280023,118.355391 844.175453,117.459961 845.280023,117.459961 C845.280025,117.459961 845.280027,117.459961 845.280029,117.459961 L856.278134,117.460004 C856.714082,117.460006 857.138091,117.602449 857.485618,117.86565 L887.305664,140.449997 L916.419081,117.87938 C916.769725,117.607537 917.200808,117.460007 917.644486,117.460007 L928.439941,117.460007 C929.544511,117.460007 930.439941,118.355437 930.439941,119.460007 L930.439941,125.908732 C930.439941,126.54344 930.138669,127.14047 929.628107,127.517539 L900.099976,149.325195 L930.319302,171.387158 C930.835067,171.763698 931.140015,172.363895 931.140015,173.002485 Z M959.910034,158.5 L959.910034,179.51001 C959.910034,180.614579 959.014604,181.51001 957.910034,181.51001 L943.879883,181.51001 C942.775313,181.51001 941.879883,180.614579 941.879883,179.51001 L941.879878,119.459961 C941.879878,118.355391 942.775308,117.459961 943.879878,117.459961 C943.879879,117.459961 943.879881,117.459961 943.879883,117.459961 L957.910034,117.460007 C959.014602,117.46001 959.910029,118.355439 959.910029,119.460007 L959.910034,142.630005 L1010.88,142.630005 L1010.88001,119.460007 C1010.88001,118.355439 1011.77544,117.46001 1012.88,117.460007 L1026.90625,117.459961 C1028.01082,117.459958 1028.90625,118.355386 1028.90626,119.459956 C1028.90626,119.459958 1028.90626,119.459959 1028.90626,119.459961 L1028.90625,179.51001 C1028.90625,180.614579 1028.01082,181.51001 1026.90625,181.51001 L1012.88,181.51001 C1011.77544,181.51001 1010.88,180.614579 1010.88,179.51001 L1010.88,158.5 L959.910034,158.5 Z M1126.83301,163.639999 C1126.83301,173.790009 1120,181.507812 1102.95996,181.507812 L1063.05005,181 C1047.01001,181 1039.42578,173.790009 1039.42578,163 L1039.42578,135.899994 C1039.42578,125.110001 1047.01001,117.460007 1064.05005,117.460007 L1102.95996,117.460007 C1120,117.460007 1126.83301,125.110001 1126.83301,134.947266 L1126.83301,163.639999 Z M1108.48999,161.639999 L1108.48999,136.947266 C1108.48999,134.029999 1104.95996,133.330002 1100.95996,133.330002 L1066.05005,133.330002 C1062.05005,133.330002 1057.52002,134.029999 1057.52002,138.029999 L1057.52002,161 C1057.52002,165.640015 1062.05005,165.700012 1065.05005,165.700012 L1100.95996,165.700012 C1104.95996,165.700012 1108.48999,165.640015 1108.48999,161.639999 Z M1206.31995,133.270004 L1181.56995,133.270004 L1181.56995,179.51001 C1181.56995,180.614579 1180.67452,181.51001 1179.56995,181.51001 L1165.46997,181.51001 C1164.3654,181.51001 1163.46997,180.614579 1163.46997,179.51001 L1163.46997,133.270004 L1138.71997,133.270004 C1137.6154,133.270004 1136.71997,132.374574 1136.71997,131.270004 L1136.71997,119.459961 C1136.71997,118.355391 1137.6154,117.459961 1138.71997,117.459961 L1206.32031,117.459915 C1207.42488,117.459915 1208.32031,118.355345 1208.32031,119.459915 C1208.32031,119.45993 1208.32031,119.459945 1208.32031,119.459961 L1208.31995,131.270004 C1208.31992,132.374556 1207.4245,133.269958 1206.31995,133.269958 Z M1305.67676,163.310852 C1305.67676,173.460861 1298.84375,181.178665 1281.80371,181.178665 L1236.30005,181.178665 L1236.30005,197.220001 C1236.30005,198.324571 1235.40462,199.220001 1234.30005,199.220001 L1220.20982,199.220015 C1219.10524,199.220015 1218.2098,198.324578 1218.2098,197.220001 C1218.2098,197.218756 1218.2098,197.21751 1218.20981,197.216264 C1218.24962,175.907809 1218.26953,163.726006 1218.26953,160.670853 L1218.26953,135.570847 C1218.26953,124.780853 1223.85376,117.130859 1240.8938,117.130859 L1281.80371,117.130859 C1298.84375,117.130859 1305.67676,124.780853 1305.67676,134.618118 L1305.67676,163.310852 Z M1287.2395,161.440857 L1287.2395,136.748123 C1287.2395,133.830856 1283.70947,133.130859 1279.70947,133.130859 L1244.79956,133.130859 C1240.79956,133.130859 1236.26953,133.830856 1236.26953,137.830856 L1236.26953,165.5 C1239.28955,165.5 1241.79956,165.5 1243.79956,165.5 L1279.70947,165.50087 C1283.70947,165.50087 1287.2395,165.440872 1287.2395,161.440857 Z M1407.186,150.265862 C1407.186,151.56762 1407.186,152.869378 1407.186,154.171135 L1407.186,154.171135 C1407.186,155.275705 1406.29057,156.171135 1405.186,156.171135 L1334.72629,156.171135 C1334.72629,156.854791 1334.72629,157.774789 1334.72629,158.93113 C1334.72629,164.157426 1338.38528,165.371148 1342.25257,165.371148 L1365.19577,165.371148 C1366.30034,165.371148 1367.19577,166.266578 1367.19577,167.371148 L1367.19577,179.181145 C1367.19577,180.285715 1366.30034,181.181145 1365.19577,181.181145 L1340.25257,181.181145 C1323.21259,181.181145 1316.63626,170.94233 1316.63626,160.93113 L1316.63626,136.491143 C1316.63626,125.701134 1323.21997,117.131142 1340.25626,117.131142 L1383.94626,117.131142 C1400.94626,117.067666 1407.186,125.700829 1407.186,136.491143 L1407.186,150.265862 Z M1389.38626,141.982713 L1389.38626,138.622728 C1389.38626,134.622728 1385.85623,133.069245 1381.85623,133.132722 L1342.16254,133.132722 C1338.12625,133.132722 1334.63626,134.622728 1334.63626,138.622728 L1334.63626,141.982713 L1389.38626,141.982713 Z M1418.59863,179.51001 L1418.59863,119.459961 C1418.59863,118.355391 1419.49406,117.459961 1420.59863,117.459961 C1420.59863,117.459961 1420.59863,117.459961 1420.59863,117.459961 L1434.63,117.460007 C1435.73457,117.46001 1436.63,118.355439 1436.63,119.460007 L1436.63,159.729996 L1489.20332,117.895025 C1489.55729,117.613358 1489.99628,117.460006 1490.44864,117.460005 L1505.7832,117.459961 C1506.88777,117.459958 1507.78321,118.355386 1507.78321,119.459956 C1507.78321,119.459958 1507.78321,119.459959 1507.78321,119.459961 L1507.7832,179.51001 C1507.7832,180.614579 1506.88777,181.51001 1505.7832,181.51001 L1491.75,181.51001 C1490.64543,181.51001 1489.75,180.614579 1489.75,179.51001 L1489.75,139.110001 L1437.17735,181.073124 C1436.823,181.355962 1436.38307,181.51001 1435.92968,181.51001 L1420.59863,181.51001 C1419.49406,181.51001 1418.59863,180.614579 1418.59863,179.51001 Z M1443.95996,111.539993 L1443.95996,102.729996 C1443.95996,101.625426 1444.85539,100.729996 1445.95996,100.729996 L1480.35999,100.729996 C1481.46455,100.729996 1482.35999,101.625426 1482.35999,102.729996 L1482.35999,111.539993 C1482.35999,112.644563 1481.46455,113.539993 1480.35999,113.539993 L1445.95996,113.539993 C1444.85539,113.539993 1443.95996,112.644563 1443.95996,111.539993 Z M1550.27002,165.829987 L1606.76001,165.829987 L1578.6748,134.130005 L1550.27002,165.829987 Z M1587.19998,116.858393 L1627.54004,165.829987 L1635.47998,165.829987 C1636.58455,165.829987 1637.47998,166.725417 1637.47998,167.829987 L1637.47998,179.638672 C1637.47998,180.743241 1636.58455,181.638672 1635.47998,181.638672 L1520.26953,181.638734 C1519.16496,181.638734 1518.26953,180.743303 1518.26953,179.638734 C1518.26953,179.638713 1518.26953,179.638692 1518.26953,179.638672 L1518.27002,167.829987 C1518.27005,166.725441 1519.16547,165.830048 1520.27002,165.830048 L1528.19995,165.829987 L1568.86016,116.852501 C1569.24013,116.394805 1569.80412,116.130005 1570.39898,116.130005 L1585.65628,116.130005 C1586.25382,116.130005 1586.82006,116.397183 1587.19998,116.858393 Z M742.320007,261.25 L679.22998,261.25 C674.961405,261.25 671.01001,263.819534 671.01001,268.940002 L671.009766,303.243164 C671.009766,307.094095 674.961405,310.320007 679.22998,310.320007 L741.940002,310.320007 C743.044572,310.320007 743.940002,311.215438 743.940002,312.320007 L743.940002,324.507812 C743.940002,325.612382 743.044572,326.507812 741.940002,326.507812 L674.22998,326.507813 C668.1362,326.507813 652.159973,321.829987 652.159973,306.829987 L652.159973,265 C654.159973,248 668.897923,245.130859 674.22998,245.130859 L742.320038,245.130791 C743.424608,245.13079 744.320039,246.02622 744.32004,247.130789 C744.32004,247.130791 744.32004,247.130793 744.32004,247.130795 L744.320007,259.25 C744.320005,260.354568 743.424575,261.249996 742.320007,261.249996 Z M760.269531,324.180908 L760.269526,264.130859 C760.269526,263.02629 761.164957,262.130859 762.269526,262.130859 C762.269528,262.130859 762.26953,262.130859 762.269531,262.130859 L776.300903,262.130905 C777.405471,262.130908 778.300898,263.026338 778.300898,264.130905 L778.300903,304.400894 L830.874219,262.565923 C831.228184,262.284256 831.667181,262.130905 832.119539,262.130903 L847.454102,262.130859 C848.558671,262.130857 849.454104,263.026285 849.454107,264.130854 C849.454107,264.130856 849.454107,264.130858 849.454107,264.130859 L849.454102,324.180908 C849.454102,325.285478 848.558671,326.180908 847.454102,326.180908 L833.420898,326.180908 C832.316329,326.180908 831.420898,325.285478 831.420898,324.180908 L831.420898,283.780899 L778.848247,325.744023 C778.493899,326.02686 778.053966,326.180908 777.600579,326.180908 L762.269531,326.180908 C761.164962,326.180908 760.269531,325.285478 760.269531,324.180908 Z M931.579956,262.140869 C916.889872,262.134196 900.483073,262.134196 882.359558,262.140869 C882.359558,263.457214 882.359558,263.537216 882.359558,262.380875 C882.359558,257.154578 886.018547,255.940857 889.885838,255.940857 L912.829041,255.940857 C913.93361,255.940857 914.829041,255.045426 914.829041,253.940857 L914.829041,242.130859 C914.829041,241.02629 913.93361,240.130859 912.829041,240.130859 L887.885838,240.130859 C870.84586,240.130859 864.269531,250.369675 864.269531,260.380875 L864.269531,306.820862 C864.269531,317.61087 870.853236,326.180862 887.889526,326.180862 L931.579956,326.180862 C948.579956,326.244339 954.819275,317.609985 954.819275,306.820862 C954.819275,297.246072 954.819275,289.179116 954.819275,282.619995 C954.819275,271.829987 948.579956,262.140869 931.579956,262.140869 Z M937.019531,282.619995 C937.019531,283.374581 937.019531,290.998197 937.019531,305.490845 C937.019531,309.490845 933.489502,311.044327 929.489502,310.98085 L889.795811,310.98085 C885.759521,310.98085 882.269531,309.490845 882.269531,305.490845 L882.269531,277.130859 C899.163966,277.130859 914.903956,277.130859 929.489502,277.130859 C933.453694,277.130859 937.019531,278.598589 937.019531,282.619995 Z M968.269531,324.180908 L968.269526,264.130859 C968.269526,263.02629 969.164957,262.130859 970.269526,262.130859 C970.269528,262.130859 970.26953,262.130859 970.269531,262.130859 L984.300903,262.130905 C985.405471,262.130908 986.300898,263.026338 986.300898,264.130905 L986.300903,304.400894 L1038.87422,262.565923 C1039.22818,262.284256 1039.66718,262.130905 1040.11954,262.130903 L1055.4541,262.130859 C1056.55867,262.130857 1057.4541,263.026285 1057.45411,264.130854 C1057.45411,264.130856 1057.45411,264.130858 1057.45411,264.130859 L1057.4541,324.180908 C1057.4541,325.285478 1056.55867,326.180908 1055.4541,326.180908 L1041.4209,326.180908 C1040.31633,326.180908 1039.4209,325.285478 1039.4209,324.180908 L1039.4209,283.780899 L986.848247,325.744023 C986.493899,326.02686 986.053966,326.180908 985.600579,326.180908 L970.269531,326.180908 C969.164962,326.180908 968.269531,325.285478 968.269531,324.180908 Z M1158.74023,308.310852 C1158.74023,318.460861 1151.90723,326.178665 1134.86719,326.178665 L1090.26953,326.178665 L1090.26953,342.220001 C1090.26953,343.324571 1089.3741,344.220001 1088.26953,344.220001 L1073.27326,344.219978 C1072.1687,344.219978 1071.27328,343.324558 1071.27328,342.220001 C1071.27328,342.218756 1071.27328,342.21751 1071.27328,342.216264 C1071.3131,320.90781 1071.33301,308.726006 1071.33301,305.670853 L1071.33301,280.570847 C1071.33301,269.780853 1078.91724,262.130859 1095.95728,262.130859 L1134.86719,262.130859 C1151.90723,262.130859 1158.74023,269.780853 1158.74023,279.618118 L1158.74023,308.310852 Z M1141.2395,306.440857 L1141.2395,281.748123 C1141.2395,278.830856 1137.70947,278.130859 1133.70947,278.130859 L1098.79956,278.130859 C1094.79956,278.130859 1090.26953,278.830856 1090.26953,282.830856 L1090.26953,310.5 C1093.28955,310.5 1095.79956,310.5 1097.79956,310.5 L1133.70947,310.50087 C1137.70947,310.50087 1141.2395,310.440872 1141.2395,306.440857 Z M1257.74023,300.040009 C1257.74023,289.889999 1248.90723,280.172195 1231.86719,280.172195 L1188.36353,280.172195 L1188.36353,264.130859 C1188.36353,263.02629 1187.46809,262.130859 1186.36353,262.130859 L1172.27329,262.130846 C1171.16872,262.130846 1170.27328,263.026282 1170.27328,264.130859 C1170.27328,264.132105 1170.27328,264.133351 1170.27328,264.134597 C1170.3131,285.443051 1170.33301,297.624855 1170.33301,300.680008 L1170.33301,305.780014 C1170.33301,316.570007 1179.91724,326.220001 1196.95728,326.220001 L1231.86719,326.220001 C1248.90723,326.220001 1257.74023,316.570007 1257.74023,306.732742 L1257.74023,300.040009 Z M1240.2395,300.190872 L1240.2395,305.880005 C1240.2395,308.797272 1236.70947,310.50087 1232.70947,310.50087 L1197.79956,310.50087 C1193.79956,310.50087 1189.26953,309.880005 1189.26953,305.880005 L1189.26953,296.131729 C1192.28955,296.131729 1194.79956,296.131729 1196.79956,296.131729 L1232.70947,296.130859 C1236.70947,296.130859 1240.2395,296.190857 1240.2395,300.190872 Z" id="Технотрейд-Сибирь" fill="#FFFFFF"></path>
        </g>
    </g>
</svg>