<?xml version="1.0" encoding="UTF-8"?>
<svg width="27px" height="20px" viewBox="0 0 27 20" version="1.1" xmlns="http://www.w3.org/2000/svg" xmlns:xlink="http://www.w3.org/1999/xlink">
    <!-- Generator: Sketch 48.2 (47327) - http://www.bohemiancoding.com/sketch -->
    <title>mail (1)</title>
    <desc>Created with Sketch.</desc>
    <defs></defs>
    <g id="Главная" stroke="none" stroke-width="1" fill="none" fill-rule="evenodd" transform="translate(-224.000000, -3376.000000)">
        <g id="Контакты" transform="translate(0.000000, 3000.000000)" fill="#000000" fill-rule="nonzero">
            <g id="Контактная-информация" transform="translate(224.000000, 321.000000)">
                <g id="Почта" transform="translate(0.000000, 48.000000)">
                    <g id="mail-(1)" transform="translate(0.000000, 7.000000)">
                        <g id="Group" transform="translate(4.218750, 9.281250)">
                            <path d="M16.9669688,5.4928125 C16.8631875,5.4928125 16.7594063,5.45484375 16.6784063,5.3780625 L11.8234688,0.8235 C11.653875,0.664875 11.6454375,0.39740625 11.8049063,0.2278125 C11.964375,0.05653125 12.2301563,0.0489375 12.4014375,0.20925 L17.256375,4.7638125 C17.4259688,4.9224375 17.4344063,5.18990625 17.2749375,5.3595 C17.1914063,5.44809375 17.0800313,5.4928125 16.9669688,5.4928125 Z" id="Shape"></path>
                            <path d="M0.7610625,5.4928125 C0.64884375,5.4928125 0.536625,5.44809375 0.45309375,5.3595 C0.293625,5.18990625 0.3020625,4.9224375 0.47165625,4.7638125 L5.32828125,0.20925 C5.49871875,0.050625 5.7661875,0.057375 5.9248125,0.2278125 C6.08428125,0.39740625 6.07584375,0.664875 5.90625,0.8235 L1.049625,5.3780625 C0.968625,5.45484375 0.86484375,5.4928125 0.7610625,5.4928125 Z" id="Shape"></path>
                        </g>
                        <path d="M24.057,19.0088438 L2.109375,19.0088438 C0.9466875,19.0088438 0,18.063 0,16.8994688 L0,2.5160625 C0,1.35253125 0.9466875,0.4066875 2.109375,0.4066875 L24.057,0.4066875 C25.2196875,0.4066875 26.166375,1.35253125 26.166375,2.5160625 L26.166375,16.8994688 C26.166375,18.063 25.2196875,19.0088438 24.057,19.0088438 Z M2.109375,1.2504375 C1.41159375,1.2504375 0.84375,1.81828125 0.84375,2.5160625 L0.84375,16.8994688 C0.84375,17.59725 1.41159375,18.1650938 2.109375,18.1650938 L24.057,18.1650938 C24.7547813,18.1650938 25.322625,17.59725 25.322625,16.8994688 L25.322625,2.5160625 C25.322625,1.81828125 24.7547813,1.2504375 24.057,1.2504375 L2.109375,1.2504375 Z" id="Shape"></path>
                        <path d="M13.0831875,11.8276875 C12.5220937,11.8276875 11.961,11.6412188 11.5340625,11.269125 L0.7003125,1.81828125 C0.5248125,1.6655625 0.50625,1.3989375 0.65896875,1.22259375 C0.813375,1.04709375 1.07915625,1.0310625 1.25465625,1.18209375 L12.0884062,10.6320937 C12.6275625,11.1020625 13.5388125,11.1020625 14.077125,10.6320937 L24.897375,1.19728125 C25.0720312,1.0445625 25.3378125,1.0614375 25.4930625,1.23778125 C25.6457812,1.414125 25.6280625,1.67990625 25.4525625,1.83346875 L14.6323125,11.2682812 C14.2045313,11.6412188 13.6442812,11.8276875 13.0831875,11.8276875 Z" id="Shape"></path>
                    </g>
                </g>
            </g>
        </g>
    </g>
</svg>