<svg xmlns="http://www.w3.org/2000/svg" xmlns:xlink="http://www.w3.org/1999/xlink" width="14" height="16" viewBox="0 0 14 16"><defs><path id="a9uda" d="M793.35 707.35c.2-.2.52-.2.71 0l6.37 6.37c.2.2.2.51 0 .7a.5.5 0 0 1-.71 0l-6.37-6.36a.5.5 0 0 1 0-.7z"/><path id="a9udb" d="M799.75 714.43c.2.2.52.2.71 0l6.37-6.37a.5.5 0 0 0-.7-.7l-6.38 6.36a.5.5 0 0 0 0 .7z"/><path id="a9udc" d="M793.35 699.35c.2-.2.52-.2.71 0l6.37 6.37c.2.2.2.51 0 .7a.5.5 0 0 1-.71 0l-6.37-6.36a.5.5 0 0 1 0-.7z"/><path id="a9udd" d="M799.75 706.43c.2.2.52.2.71 0l6.37-6.37a.5.5 0 0 0-.7-.7l-6.38 6.36a.5.5 0 0 0 0 .7z"/></defs><g><g transform="translate(-793 -699)"><use fill="#fff" xlink:href="#a9uda"/></g><g transform="translate(-793 -699)"><use fill="#fff" xlink:href="#a9udb"/></g><g transform="translate(-793 -699)"><use fill="#fff" xlink:href="#a9udc"/></g><g transform="translate(-793 -699)"><use fill="#fff" xlink:href="#a9udd"/></g></g></svg>