<?xml version="1.0" encoding="UTF-8"?>
<svg width="24px" height="25px" viewBox="0 0 24 25" version="1.1" xmlns="http://www.w3.org/2000/svg" xmlns:xlink="http://www.w3.org/1999/xlink">
    <!-- Generator: Sketch 48.2 (47327) - http://www.bohemiancoding.com/sketch -->
    <title>telephone</title>
    <desc>Created with Sketch.</desc>
    <defs></defs>
    <g id="Главная" stroke="none" stroke-width="1" fill="none" fill-rule="evenodd" transform="translate(-224.000000, -3326.000000)">
        <g id="Контакты" transform="translate(0.000000, 3000.000000)" fill="#000000" fill-rule="nonzero">
            <g id="Контактная-информация" transform="translate(224.000000, 321.000000)">
                <g id="Телефон">
                    <g id="telephone" transform="translate(0.000000, 5.000000)">
                        <path d="M4.89654772,15.973444 C7.2666722,18.806639 10.1197842,21.0373444 13.3762158,22.6157676 C14.6160498,23.2033195 16.2741411,23.9004149 18.121444,24.019917 C18.2359668,24.0248963 18.3455104,24.0298755 18.4600332,24.0298755 C19.6998672,24.0298755 20.6957178,23.6016598 21.5073361,22.720332 C21.5123154,22.7153527 21.5222739,22.7053942 21.5272531,22.6954357 C21.8160498,22.346888 22.1446805,22.033195 22.488249,21.6995851 C22.7222739,21.4755187 22.961278,21.2414938 23.1903237,21.0024896 C24.2509046,19.8970954 24.2509046,18.4929461 23.1803651,17.4224066 L20.187834,14.4298755 C19.6799502,13.9020747 19.0724813,13.6232365 18.4351369,13.6232365 C17.7977925,13.6232365 17.1853444,13.9020747 16.6625228,14.4248963 L14.8799502,16.2074689 C14.7156349,16.1128631 14.5463402,16.0282158 14.3870041,15.9485477 C14.187834,15.8489627 14.0036017,15.7543568 13.8392863,15.6497925 C12.2160498,14.6190871 10.7421909,13.2746888 9.33306224,11.546888 C8.62102905,10.6456432 8.14302075,9.88879668 7.80941079,9.11701245 C8.27746058,8.69377593 8.71563485,8.25062241 9.13887137,7.81742739 C9.28824896,7.66307054 9.44260581,7.50871369 9.59696266,7.35435685 C10.134722,6.81659751 10.4235187,6.19419087 10.4235187,5.56182573 C10.4235187,4.92946058 10.1397012,4.30705394 9.59696266,3.76929461 L8.11314523,2.28547718 C7.93887137,2.11120332 7.77455602,1.94190871 7.60526141,1.76763485 C7.27663071,1.42904564 6.93306224,1.08049793 6.59447303,0.766804979 C6.08160996,0.263900415 5.47912033,2.84217094e-14 4.84177593,2.84217094e-14 C4.20941079,2.84217094e-14 3.60194191,0.263900415 3.06916183,0.771784232 L1.20692116,2.6340249 C0.529742739,3.31120332 0.146340249,4.13278008 0.0666721992,5.08381743 C-0.02793361,6.27385892 0.191153527,7.53858921 0.758788382,9.06721992 C1.63015768,11.4323651 2.9446805,13.6282158 4.89654772,15.973444 Z M1.28160996,5.18838174 C1.341361,4.52614108 1.5953029,3.97344398 2.0733112,3.49543568 L3.92559336,1.64315353 C4.21439004,1.36431535 4.53306224,1.21991701 4.84177593,1.21991701 C5.14551037,1.21991701 5.45422407,1.36431535 5.73804149,1.65311203 C6.07165145,1.96182573 6.3853444,2.28547718 6.72393361,2.62904564 C6.89322822,2.8033195 7.06750207,2.97759336 7.24177593,3.15684647 L8.72559336,4.6406639 C9.03430705,4.94937759 9.19364315,5.26307054 9.19364315,5.57178423 C9.19364315,5.88049793 9.03430705,6.19419087 8.72559336,6.50290456 C8.57123651,6.65726141 8.41687967,6.81659751 8.26252282,6.97095436 C7.79945228,7.43900415 7.36625726,7.88215768 6.88824896,8.30539419 C6.87829046,8.3153527 6.8733112,8.32033195 6.8633527,8.33029046 C6.45007469,8.74356846 6.51480498,9.13692946 6.61439004,9.43568465 C6.61936929,9.45062241 6.62434855,9.46058091 6.6293278,9.47551867 C7.01273029,10.3966805 7.54551037,11.273029 8.37704564,12.3186722 C9.87082158,14.1609959 11.4442656,15.5900415 13.1770456,16.6904564 C13.3911535,16.8298755 13.6201992,16.9394191 13.8343071,17.0489627 C14.0334772,17.1485477 14.2177095,17.2431535 14.3820249,17.3477178 C14.4019419,17.3576763 14.4168797,17.3676349 14.4367967,17.3775934 C14.601112,17.4622407 14.7604481,17.5020747 14.9197842,17.5020747 C15.3181245,17.5020747 15.5770456,17.2481328 15.6616929,17.1634855 L17.5239336,15.3012448 C17.8127303,15.0124481 18.1264232,14.8580913 18.4351369,14.8580913 C18.8135602,14.8580913 19.1222739,15.0921162 19.3164647,15.3012448 L22.3189544,18.2987552 C22.9164647,18.8962656 22.9114855,19.5435685 22.3040166,20.1759336 C22.094888,20.4 21.8758008,20.6141079 21.6417759,20.8381743 C21.2932282,21.1767635 20.9297427,21.5253112 20.601112,21.9186722 C20.0284979,22.5360996 19.3463402,22.8248963 18.4650124,22.8248963 C18.3803651,22.8248963 18.2907386,22.819917 18.2060913,22.8149378 C16.5728963,22.7103734 15.0542241,22.073029 13.9139751,21.5302905 C10.8168797,20.0315353 8.09820747,17.9053942 5.84260581,15.206639 C3.9853444,12.9709544 2.73555187,10.8896266 1.90899585,8.65892116 C1.39613278,7.28962656 1.20194191,6.18921162 1.28160996,5.18838174 Z" id="Shape"></path>
                    </g>
                </g>
            </g>
        </g>
    </g>
</svg>