<svg xmlns="http://www.w3.org/2000/svg" xmlns:xlink="http://www.w3.org/1999/xlink" width="130" height="130" viewBox="0 0 130 130"><defs><path id="fwq6a" d="M698.6 1894.74H728V1922h-29.4v-3.74l-8.18 1.64-27.87-.05-21.49-4.36-10.35-5.11a6 6 0 0 1-2.82-7.88 6.04 6.04 0 0 1 8.37-2.8l4.6 2.51-.63-1.88a5.85 5.85 0 0 1 5.52-7.7 5.8 5.8 0 0 1 5.42 3.67l2.7 6.78 6.6-.02-4.53-2.4a6.48 6.48 0 0 1 5.19-11.84l17.67 6.27 5.76 3.84h14.04zm-54.4 4.25l1.39 4.12 3.78-.01-2.1-5.24c-.45-1.12-2.14-1.33-2.85-.35-.3.44-.39.98-.22 1.48zm58.6 18.82h21v-18.87h-12.57v14.67h-4.2v-14.67h-4.23zm-4.2-14.69h-15.3l-6.6-4.4-16.96-5.94a2.27 2.27 0 0 0-2.94 1.49 2.28 2.28 0 0 0 1.1 2.68l11.73 6.23-8.27 4.14h-19.9l-7.2-3.94c-.45-.25-.97-.3-1.46-.13a1.8 1.8 0 0 0-1.08.98c-.42.9-.04 1.95.85 2.39l10.1 4.98 20.5 4.1H690l8.6-1.72z"/><path id="fwq6b" d="M623.16 1871.68a12.6 12.6 0 0 1-12.58 12.58 12.6 12.6 0 0 1-12.58-12.58 12.6 12.6 0 0 1 10.48-12.4v-12.76h16.78v-33.55h18.87v4.2h-14.68v29.35h31.45v-12.58h-2.1a10.5 10.5 0 0 1-10.48-10.49h4.2a6.3 6.3 0 0 0 6.29 6.3h8.38a6.3 6.3 0 0 0 0-12.59h-8.38a10.5 10.5 0 0 1 0-20.97h2.1V1792h4.19v4.2h2.1a10.5 10.5 0 0 1 10.48 10.48h-4.2a6.3 6.3 0 0 0-6.29-6.3h-8.38a6.3 6.3 0 0 0 0 12.59h8.38a10.5 10.5 0 0 1 0 20.97h-2.1v12.58h31.46v-29.36h-14.68v-4.2h18.87v33.56h16.78v12.77a12.6 12.6 0 0 1 10.48 12.39 12.6 12.6 0 0 1-12.58 12.58 12.6 12.6 0 0 1-12.58-12.58c0-6.23 4.54-11.4 10.48-12.4v-8.57h-29.35v8.58a12.6 12.6 0 0 1 10.48 12.39 12.6 12.6 0 0 1-12.58 12.58 12.6 12.6 0 0 1-12.58-12.58c0-6.23 4.54-11.4 10.48-12.4v-8.57h-33.54v8.58a12.6 12.6 0 0 1 10.48 12.39 12.6 12.6 0 0 1-12.58 12.58 12.6 12.6 0 0 1-12.58-12.58c0-6.23 4.54-11.4 10.48-12.4v-8.57h-29.35v8.58a12.6 12.6 0 0 1 10.48 12.39zm92.26-8.39a8.4 8.4 0 1 0 .02 16.8 8.4 8.4 0 0 0-.02-16.8zm-33.55 0a8.4 8.4 0 1 0 .02 16.8 8.4 8.4 0 0 0-.02-16.8zm-37.74 0a8.4 8.4 0 1 0 .02 16.8 8.4 8.4 0 0 0-.02-16.8zm-25.16 8.39a8.4 8.4 0 1 0-16.8.01 8.4 8.4 0 0 0 16.8-.01z"/><path id="fwq6c" d="M608.48 1873.77v-4.19h4.19v4.19z"/><path id="fwq6d" d="M642.03 1873.77v-4.19h4.19v4.19z"/><path id="fwq6e" d="M679.77 1873.77v-4.19h4.19v4.19z"/><path id="fwq6f" d="M713.32 1873.77v-4.19h4.19v4.19z"/></defs><g><g transform="translate(-598 -1792)"><g><use fill="#fff" xlink:href="#fwq6a"/></g><g><use fill="#fdce0a" xlink:href="#fwq6b"/></g><g><use fill="#fff" xlink:href="#fwq6c"/></g><g><use fill="#fff" xlink:href="#fwq6d"/></g><g><use fill="#fff" xlink:href="#fwq6e"/></g><g><use fill="#fff" xlink:href="#fwq6f"/></g></g></g></svg>