<svg xmlns="http://www.w3.org/2000/svg" xmlns:xlink="http://www.w3.org/1999/xlink" width="130" height="130" viewBox="0 0 130 130"><defs><path id="fik2a" d="M1102 1811.5v99.67c0 5.97-4.86 10.83-10.83 10.83H982.83a10.85 10.85 0 0 1-10.83-10.83v-99.67c0-5.97 4.86-10.83 10.83-10.83H998v-2.17a6.5 6.5 0 0 1 13 0v2.17h52v-2.17a6.5 6.5 0 0 1 13 0v2.17h15.17c5.97 0 10.83 4.86 10.83 10.83zm-34.67 4.33a2.17 2.17 0 0 0 4.34 0v-17.33a2.17 2.17 0 0 0-4.34 0zm-8.66 5.42a5.42 5.42 0 0 0 5.41 5.42h10.84a5.42 5.42 0 0 0 1.07-10.73 6.5 6.5 0 0 1-12.98 0 5.42 5.42 0 0 0-4.34 5.31zm-56.34-5.42a2.17 2.17 0 0 0 4.34 0v-17.33a2.17 2.17 0 0 0-4.34 0zm-8.66 5.42a5.42 5.42 0 0 0 5.41 5.42h10.84a5.42 5.42 0 0 0 1.07-10.73 6.5 6.5 0 0 1-12.98 0 5.42 5.42 0 0 0-4.34 5.31zm104 18.42H976.33v71.5a6.5 6.5 0 0 0 6.5 6.5h108.34a6.5 6.5 0 0 0 6.5-6.5zm0-28.17a6.5 6.5 0 0 0-6.5-6.5H1076v6.61a9.73 9.73 0 0 1-1.08 19.39h-10.84a9.73 9.73 0 1 1-1.08-19.39V1805h-52v6.61a9.73 9.73 0 0 1-1.08 19.39h-10.84a9.73 9.73 0 1 1-1.08-19.39V1805h-15.17a6.5 6.5 0 0 0-6.5 6.5v23.83h121.34z"/><path id="fik2b" d="M998 1848.33V1844h4.33v4.33z"/><path id="fik2c" d="M989.33 1848.33V1844h4.33v4.33z"/><path id="fik2d" d="M980.67 1848.33V1844H985v4.33z"/><path id="fik2e" d="M1091.16 1896v8.66c0 1.06-.76 1.97-1.8 2.14l-13 2.17-.36.03c-.57 0-1.13-.23-1.54-.64l-1.53-1.53h-29.43v4.33c0 1.2-.97 2.17-2.17 2.17h-8.67c-.57 0-1.12-.23-1.53-.63l-2.8-2.8-2.8 2.8c-.4.4-.96.63-1.53.63h-39c-1.2 0-2.17-.97-2.17-2.17v-21.66c0-1.2.97-2.17 2.17-2.17h38.73c.55 0 1.08.21 1.48.59l3.03 2.84 2.57-2.75c.41-.43.98-.68 1.58-.68h8.94c1.2 0 2.17.97 2.17 2.17v4.33h29.43l1.53-1.53c.5-.5 1.2-.72 1.9-.6l13 2.16a2.17 2.17 0 0 1 1.8 2.14zm-52-4.34h-5.83l-3.42 3.65c-.4.42-.93.67-1.51.69-.56.04-1.14-.2-1.55-.6l-3.98-3.74h-35.7V1909h35.93l3.7-3.7a2.16 2.16 0 0 1 3.06 0l3.7 3.7h5.6zm47.67 6.17l-10.09-1.68-1.38 1.38c-.4.4-.95.63-1.53.63h-30.33v4.34h30.33c.58 0 1.13.22 1.53.63l1.38 1.38 10.09-1.68z"/><path id="fik2f" d="M1088.79 1873.4c.36.74.26 1.64-.26 2.29l-8.67 10.83c-.41.51-1.03.81-1.69.81h-13c-.58 0-1.13-.22-1.53-.63l-12.37-12.37h-61.93a8.68 8.68 0 0 1 0-17.33h61.93l12.37-12.37c.4-.4.95-.63 1.53-.63h13c.66 0 1.28.3 1.7.81l8.66 10.84a2.17 2.17 0 0 1-1.7 3.52h-14.08l-4.87 6.5 4.87 6.5h14.09c.83 0 1.59.48 1.95 1.22zm-6.46 3.1h-10.66c-.68 0-1.33-.32-1.73-.87l-6.5-8.67a2.16 2.16 0 0 1 0-2.6l6.5-8.66c.4-.55 1.05-.87 1.73-.87h10.66l-5.2-6.5h-11.06l-12.37 12.37c-.4.4-.95.63-1.53.63h-62.83a4.34 4.34 0 0 0 0 8.67h62.83c.58 0 1.13.23 1.53.63l12.37 12.37h11.06z"/><path id="fik2g" d="M991.5 1900.33V1896h15.17v4.33z"/><path id="fik2h" d="M1011 1900.33V1896h4.33v4.33z"/></defs><g><g transform="translate(-972 -1792)"><g><use fill="#fdce0a" xlink:href="#fik2a"/></g><g><use fill="#fff" xlink:href="#fik2b"/></g><g><use fill="#fff" xlink:href="#fik2c"/></g><g><use fill="#fff" xlink:href="#fik2d"/></g><g><use fill="#fdce0a" xlink:href="#fik2e"/></g><g><use fill="#fff" xlink:href="#fik2f"/></g><g><use fill="#fff" xlink:href="#fik2g"/></g><g><use fill="#fff" xlink:href="#fik2h"/></g></g></g></svg>