<?xml version="1.0" encoding="UTF-8"?>
<svg width="100px" height="100px" viewBox="0 0 100 100" version="1.1" xmlns="http://www.w3.org/2000/svg" xmlns:xlink="http://www.w3.org/1999/xlink">
    <!-- Generator: Sketch 48.2 (47327) - http://www.bohemiancoding.com/sketch -->
    <title>gas-pipe</title>
    <desc>Created with Sketch.</desc>
    <defs></defs>
    <g id="Главная" stroke="none" stroke-width="1" fill="none" fill-rule="evenodd" transform="translate(-780.000000, -1803.000000)">
        <g id="Услуги" transform="translate(0.000000, 1500.000000)">
            <g id="Список-услуг" transform="translate(224.000000, 302.000000)">
                <g id="Group-9" transform="translate(556.000000, 1.000000)">
                    <g id="gas-pipe">
                        <path d="M78.3333984,70 L78.3333984,60 L78.3333984,56.6667969 L78.3333984,51.6667969 C78.3333984,50.6667969 77.6667969,50.0001953 76.6667969,50.0001953 L61.5,50.0001953 L61.5,41.7501953 C69.4308594,38.5367187 75,30.7744141 75,21.6666016 C75,9.66660156 65.3333984,0 53.3333984,0 C41.3333984,0 31.6666016,9.66660156 31.6666016,21.6666016 C31.6666016,30.7105469 37.1578125,38.428125 45,41.6820313 L45,50 L30,50 C29,50 28.3333984,50.6666016 28.3333984,51.6666016 L28.3333984,56.7134766 L28.3332031,60 L28.3332031,69.6666016 L28.3330078,73.1085937 L28.3330078,78.3332031 C28.3330078,79.3332031 28.9996094,79.9998047 29.9996094,79.9998047 L76.6662109,79.9998047 C77.6662109,79.9998047 78.3328125,79.3332031 78.3328125,78.3332031 L78.3328125,73.3332031 L78.3333984,70 Z M58.1402344,39.353125 C58.0435547,39.3787109 57.9472656,39.4070313 57.8503906,39.4310547 C57.8314453,39.4359375 57.8121094,39.4402344 57.7931641,39.4451172 C56.3007812,39.8121094 54.7916016,39.996875 53.2820312,39.9994141 C53.225,39.9992187 53.1681641,39.9978516 53.1113281,39.9972656 C52.9943359,39.9964844 52.8771484,39.9931641 52.7601562,39.9900391 C49.7298828,39.8951172 46.8669922,39.0515625 44.3599609,37.6339844 C46.5271484,34.8224609 49.8472656,33.3333984 53.3332031,33.3333984 C56.8193359,33.3333984 60.1392578,34.8224609 62.3064453,37.6339844 C61.0050781,38.3699219 59.6074219,38.9509766 58.1402344,39.353125 Z M35,21.6666016 C35,11.5 43.3333984,3.33320313 53.3333984,3.33320313 C63.5,3.33320313 71.6667969,11.4998047 71.6667969,21.6666016 C71.6667969,27.3052734 69.1025391,32.3277344 65.1130859,35.6839844 C62.2460938,32.0876953 58.0509766,30 53.3333984,30 C48.7904297,30 44.5058594,32.0623047 41.6113281,35.7324219 C37.5888672,32.3763672 35,27.3326172 35,21.6666016 Z M48.6677734,42.8318359 C48.7912109,42.8587891 48.9146484,42.8853516 49.0386719,42.9101562 C49.1605469,42.9345703 49.2826172,42.9578125 49.4050781,42.9800781 C49.5160156,43.0001953 49.6275391,43.01875 49.7390625,43.0373047 C49.9203125,43.0673828 50.1023438,43.0951172 50.2849609,43.1207031 C50.4130859,43.1386719 50.5412109,43.1560547 50.6699219,43.1716797 C50.7787109,43.1849609 50.8878906,43.1972656 50.9970703,43.2087891 C51.1701172,43.2271484 51.3439453,43.2433594 51.5183594,43.2578125 C51.6041016,43.2648437 51.6900391,43.2716797 51.7759766,43.2777344 C51.9775391,43.2919922 52.1798828,43.303125 52.3830078,43.3117187 C52.4546875,43.3148437 52.5263672,43.3175781 52.5980469,43.3199219 C52.8421875,43.3279297 53.0869141,43.3335937 53.3330078,43.3335937 C53.5798828,43.3335937 53.8253906,43.3279297 54.0701172,43.3199219 C54.1396484,43.3175781 54.2091797,43.3150391 54.2785156,43.3121094 C54.4974609,43.3027344 54.715625,43.2910156 54.9328125,43.2751953 C54.98125,43.2716797 55.0296875,43.2679687 55.078125,43.2642578 C55.2929688,43.2472656 55.5066406,43.2265625 55.7195313,43.2033203 C55.7890625,43.1957031 55.8583984,43.1878906 55.9277344,43.1796875 C56.7445313,43.0830078 57.5472656,42.9416016 58.3332031,42.7572266 L58.3332031,50 L48.3332031,50 L48.3332031,42.7578125 C48.4443359,42.7839844 48.55625,42.8074219 48.6677734,42.8318359 Z M75,76.6666016 L31.6666016,76.6666016 L31.6666016,71.3332031 L31.6666016,58.3332031 L31.6666016,53.3332031 L46.6666016,53.3332031 L60,53.3332031 L75,53.3332031 L75,58.3332031 L75,71.6666016 L75,76.6666016 Z" id="Shape" fill="#FECE0B" fill-rule="nonzero"></path>
                        <path d="M28.3333984,56.7134766 C12.6007812,57.5753906 0,70.5535156 0,86.3333984 L0,98.3333984 C0,99.3333984 0.666601562,100 1.66660156,100 C2.66660156,100 3.33320312,99.3333984 3.33320312,98.3333984 L3.33320312,86.3333984 C3.33320312,72.3333984 14.4998047,60.8333984 28.3332031,60 L28.3332031,69.6666016 C19.9998047,70.6666016 13.3332031,77.6666016 13.3332031,86.3332031 L13.3332031,98.3332031 C13.3332031,99.3332031 13.9998047,99.9998047 14.9998047,99.9998047 C15.9998047,99.9998047 16.6664062,99.3332031 16.6664062,98.3332031 L16.6664062,86.3332031 C16.6664062,79.5644531 21.7792969,73.9357422 28.3330078,73.1085938 L28.3333984,56.7134766 Z" id="Path-Copy" fill="#FFFFFF"></path>
                        <path d="M98.2005981,70.0331543 L78.2005981,70.0331543 L78.2005981,60.0331543 L98.2005981,60.0331543 C99.2005981,60.0331543 99.8671997,59.3665527 99.8671997,58.3665527 C99.8671997,57.3665527 99.2005981,56.6999512 98.2005981,56.6999512 L78.2005981,56.6999512 L78.2000122,73.3663574 L98.2000122,73.3663574 C99.2000122,73.3663574 99.8666138,72.6997559 99.8666138,71.6997559 C99.8666138,70.6997559 99.2005981,70.0331543 98.2005981,70.0331543 Z" id="Path" fill="#FFFFFF"></path>
                        <path d="M66.6666016,58.3333984 L40,58.3333984 C39,58.3333984 38.3333984,59 38.3333984,60 L38.3333984,70 C38.3333984,71 39,71.6666016 40,71.6666016 L66.6666016,71.6666016 C67.6666016,71.6666016 68.3332031,71 68.3332031,70 L68.3332031,60 C68.3333984,59 67.6666016,58.3333984 66.6666016,58.3333984 Z M65,68.3333984 L41.6666016,68.3333984 L41.6666016,61.6667969 L65,61.6667969 L65,68.3333984 Z" id="Shape" fill="#FECE0B" fill-rule="nonzero"></path>
                        <path d="M41.6666016,21.6666016 C41.6666016,20.8332031 41,20 40,20 C39,20 38.3333984,20.6666016 38.3333984,21.6666016 C38.3333984,22.6666016 39,23.3332031 40,23.3332031 C41,23.3333984 41.6666016,22.6666016 41.6666016,21.6666016 Z" id="Shape" fill="#FFFFFF" fill-rule="nonzero"></path>
                        <path d="M66.6666016,23.3333984 C67.6666016,23.3333984 68.3332031,22.6667969 68.3332031,21.6667969 C68.3332031,20.8333984 67.6666016,20.0001953 66.6666016,20.0001953 C65.6666016,20.0001953 65,20.6667969 65,21.6667969 C65,22.6667969 65.6666016,23.3333984 66.6666016,23.3333984 Z" id="Shape" fill="#FFFFFF" fill-rule="nonzero"></path>
                        <path d="M43.3333984,15 C44.3333984,15 45,14.3333984 45,13.3333984 C45,12.5 44.3333984,11.6667969 43.3333984,11.6667969 C42.3333984,11.6667969 41.6667969,12.3333984 41.6667969,13.3333984 C41.6667969,14.3333984 42.3333984,15 43.3333984,15 Z" id="Shape" fill="#FFFFFF" fill-rule="nonzero"></path>
                        <path d="M53.3333984,10 C54.3333984,10 55,9.33339844 55,8.33339844 C55,7.5 54.3333984,6.66679687 53.3333984,6.66679687 C52.3333984,6.66679687 51.6667969,7.33339844 51.6667969,8.33339844 C51.6667969,9.33339844 52.3333984,10 53.3333984,10 Z" id="Shape" fill="#FFFFFF" fill-rule="nonzero"></path>
                        <path d="M63.3333984,15 C64.3333984,15 65,14.3333984 65,13.3333984 C65,12.5 64.3333984,11.6667969 63.3333984,11.6667969 C62.3333984,11.6667969 61.6667969,12.3333984 61.6667969,13.3333984 C61.6667969,14.3333984 62.3333984,15 63.3333984,15 Z" id="Shape" fill="#FFFFFF" fill-rule="nonzero"></path>
                        <path d="M52,26 C52.3333984,26.5 53.5,26.5 54.1666016,26.1666016 C54.8332031,25.6666016 55,24.5 54.3332031,23.8332031 L48.8332031,17.1666016 C48.3332031,16.5 47.1666016,16.3332031 46.4998047,17 C45.8332031,17.5 45.6664062,18.6666016 46.3332031,19.3333984 L52,26 Z" id="Shape" fill="#FFFFFF" fill-rule="nonzero"></path>
                    </g>
                </g>
            </g>
        </g>
    </g>
</svg>