<svg xmlns="http://www.w3.org/2000/svg" xmlns:xlink="http://www.w3.org/1999/xlink" width="130" height="130" viewBox="0 0 130 130"><defs><path id="tqp2a" d="M345.53 1917.8v-101.87L289 1792l-56.53 23.93v101.87h-8.37v4.2h12.54v-103.3l52.36-22.14 52.36 22.13V1922h12.54v-4.2z"/><path id="tqp2b" d="M242.94 1836.14V1922h4.2v-81.66h83.73V1922h4.2v-85.86z"/><path id="tqp2c" d="M286.9 1892.67V1922h-33.5v-29.33zm-18.86 8.4h4.2v-4.2h-4.2zm14.69-4.2h-6.3v8.36h-12.56v-8.36h-6.27v20.93h25.13z"/><path id="tqp2d" d="M324.6 1892.67V1922h-33.5v-29.33zm-18.86 8.4h4.2v-4.2h-4.2zm14.66 16.73v-20.93h-6.3v8.36h-12.56v-8.36h-6.27v20.93z"/><path id="tqp2e" d="M272.24 1859.18h33.5v29.33h-33.5zm14.66 4.2v4.2h4.2v-4.2zm-10.46 20.93h25.1v-20.93h-6.27v8.36h-12.56v-8.36h-6.27z"/><path id="tqp2f" d="M286.9 1821.51v-4.2h4.2v4.2z"/><path id="tqp2g" d="M295.27 1821.51v-4.2h4.2v4.2z"/><path id="tqp2h" d="M278.53 1821.51v-4.2h4.2v4.2z"/></defs><g><g transform="translate(-224 -1792)"><g><use fill="#fdce0a" xlink:href="#tqp2a"/></g><g><use fill="#fdce0a" xlink:href="#tqp2b"/></g><g><use fill="#fff" xlink:href="#tqp2c"/></g><g><use fill="#fff" xlink:href="#tqp2d"/></g><g><use fill="#fff" xlink:href="#tqp2e"/></g><g><use fill="#fff" xlink:href="#tqp2f"/></g><g><use fill="#fff" xlink:href="#tqp2g"/></g><g><use fill="#fff" xlink:href="#tqp2h"/></g></g></g></svg>